<svg width="186" height="178" viewBox="0 0 186 178" fill="none" xmlns="http://www.w3.org/2000/svg">
<g clip-path="url(#clip0_30_537)">
<path d="M93 14.8333C135.803 14.8333 170.5 48.0377 170.5 89C170.5 129.962 135.803 163.167 93 163.167C50.1968 163.167 15.5 129.962 15.5 89C15.5 48.0377 50.1968 14.8333 93 14.8333ZM93 29.6666C76.5566 29.6666 60.7866 35.9178 49.1594 47.045C37.5321 58.1721 31 73.2638 31 89C31 104.736 37.5321 119.828 49.1594 130.955C60.7866 142.082 76.5566 148.333 93 148.333C109.443 148.333 125.213 142.082 136.841 130.955C148.468 119.828 155 104.736 155 89C155 73.2638 148.468 58.1721 136.841 47.045C125.213 35.9178 109.443 29.6666 93 29.6666ZM92.9225 74.1666C97.247 74.1666 100.75 77.519 100.75 81.6575V119.66C102.227 120.477 103.382 121.737 104.035 123.245C104.688 124.754 104.802 126.426 104.361 128.003C103.919 129.58 102.946 130.973 101.593 131.967C100.239 132.961 98.581 133.5 96.875 133.5H93.0775C92.0496 133.5 91.0317 133.306 90.082 132.93C89.1324 132.553 88.2695 132.002 87.5426 131.306C86.8158 130.61 86.2392 129.785 85.8458 128.876C85.4525 127.967 85.25 126.993 85.25 126.009V89C83.1946 89 81.2233 88.2186 79.7699 86.8277C78.3165 85.4368 77.5 83.5503 77.5 81.5833C77.5 79.6163 78.3165 77.7298 79.7699 76.3389C81.2233 74.948 83.1946 74.1666 85.25 74.1666H92.9225ZM93 51.9166C95.0554 51.9166 97.0267 52.698 98.4801 54.0889C99.9335 55.4798 100.75 57.3663 100.75 59.3333C100.75 61.3003 99.9335 63.1868 98.4801 64.5777C97.0267 65.9686 95.0554 66.75 93 66.75C90.9446 66.75 88.9733 65.9686 87.5199 64.5777C86.0665 63.1868 85.25 61.3003 85.25 59.3333C85.25 57.3663 86.0665 55.4798 87.5199 54.0889C88.9733 52.698 90.9446 51.9166 93 51.9166Z" fill="#F2EDE7"/>
</g>
<defs>
<clipPath id="clip0_30_537">
<rect width="186" height="178" fill="white"/>
</clipPath>
</defs>
</svg>
